<svg width="49" height="49" viewBox="0 0 49 49" fill="none" xmlns="http://www.w3.org/2000/svg">
<path d="M32.1013 48.1519H26.7511V42.8017H32.1013V48.1519ZM26.7511 29.4262H21.4009V42.8017H26.7511V29.4262ZM48.1519 24.076H42.8017V34.7764H48.1519V24.076ZM42.8017 18.7257H37.4515V24.076H42.8017V18.7257ZM10.7004 24.076H5.35021V29.4262H10.7004V24.076ZM5.35021 18.7257H0V24.076H5.35021V18.7257ZM24.076 5.35021H29.4262V0H24.076V5.35021ZM4.01266 4.01266V12.038H12.038V4.01266H4.01266ZM16.0506 16.0506H0V0H16.0506V16.0506ZM4.01266 36.1139V44.1393H12.038V36.1139H4.01266ZM16.0506 48.1519H0V32.1013H16.0506V48.1519ZM36.1139 4.01266V12.038H44.1393V4.01266H36.1139ZM48.1519 16.0506H32.1013V0H48.1519V16.0506ZM42.8017 42.8017V34.7764H32.1013V40.1266H37.4515V48.1519H48.1519V42.8017H42.8017ZM37.4515 24.076H26.7511V29.4262H37.4515V24.076ZM26.7511 18.7257H10.7004V24.076H16.0506V29.4262H21.4009V24.076H26.7511V18.7257ZM29.4262 16.0506V10.7004H24.076V5.35021H18.7257V16.0506H29.4262ZM10.0317 6.01899H6.01899V10.0317H10.0317V6.01899ZM10.0317 38.1203H6.01899V42.1329H10.0317V38.1203ZM42.1329 6.01899H38.1203V10.0317H42.1329V6.01899Z" fill="#C9C9C9"/>
</svg>
