<svg width="18" height="12" viewBox="0 0 18 12" fill="none" xmlns="http://www.w3.org/2000/svg">
<path fill-rule="evenodd" clip-rule="evenodd" d="M7.44602 5.45366C7.9092 5.24804 8.30729 4.91961 8.59717 4.50394C8.86993 4.05218 9.00433 3.53039 8.98374 3.00308C9.00206 2.52099 8.91306 2.04085 8.72317 1.59736C8.56809 1.21958 8.3133 0.891025 7.98603 0.646783C7.64317 0.398211 7.25317 0.229353 6.84345 0.153067C6.35955 0.045539 5.86483 -0.00565848 5.36916 0.000495396H0.257144C0.188945 0.000495396 0.123539 0.027587 0.0753157 0.0758108C0.0270919 0.124035 0 0.189441 0 0.257639V11.6928C0 11.761 0.0270919 11.8264 0.0753157 11.8746C0.123539 11.9229 0.188945 11.95 0.257144 11.95H5.48573C5.98631 11.95 6.48516 11.8831 6.96859 11.7502C7.43076 11.6227 7.86645 11.4137 8.25517 11.1331C8.63913 10.8512 8.94815 10.4795 9.15517 10.0505C9.38958 9.56199 9.50361 9.02444 9.48775 8.48281C9.50586 7.8131 9.32736 7.15276 8.97432 6.58337C8.60786 6.02445 8.04712 5.62131 7.4006 5.45194L7.44602 5.45366ZM2.61429 1.92907C2.56883 1.92907 2.52522 1.94713 2.49308 1.97928C2.46093 2.01143 2.44287 2.05504 2.44287 2.1005V4.75765C2.44287 4.85194 2.52001 4.92908 2.61429 4.92908H5.0143C5.41213 4.92908 5.79366 4.77105 6.07497 4.48974C6.35627 4.20844 6.51431 3.8269 6.51431 3.42908C6.51431 3.03125 6.35627 2.64972 6.07497 2.36841C5.79366 2.08711 5.41213 1.92907 5.0143 1.92907H2.61429ZM2.44287 6.60052C2.44287 6.50623 2.52001 6.42909 2.61429 6.42909H5.12145C5.60452 6.42909 6.06781 6.62099 6.40939 6.96257C6.75098 7.30416 6.94288 7.76745 6.94288 8.25052C6.94288 8.7336 6.75098 9.19689 6.40939 9.53847C6.06781 9.88006 5.60452 10.072 5.12145 10.072H2.61429C2.56883 10.072 2.52522 10.0539 2.49308 10.0217C2.46093 9.9896 2.44287 9.94599 2.44287 9.90053V6.60052Z" fill="#005BFB"/>
<path d="M11.9478 0.609131H15.9961C16.0637 0.609125 16.1286 0.635746 16.1767 0.68323C16.2249 0.730715 16.2524 0.795243 16.2533 0.862846L16.2644 1.68742C16.2649 1.72148 16.2585 1.75528 16.2458 1.78688C16.2331 1.81847 16.2142 1.84723 16.1903 1.87147C16.1664 1.89571 16.1379 1.91496 16.1065 1.9281C16.075 1.94123 16.0413 1.948 16.0073 1.94799H11.9478C11.8796 1.94799 11.8142 1.9209 11.766 1.87268C11.7178 1.82445 11.6907 1.75905 11.6907 1.69085V0.866275C11.6907 0.798076 11.7178 0.73267 11.766 0.684446C11.8142 0.636223 11.8796 0.609131 11.9478 0.609131Z" fill="#005BFB"/>
<path fill-rule="evenodd" clip-rule="evenodd" d="M14.1189 10.1747C14.5361 10.1871 14.946 10.0638 15.2872 9.82328C15.51 9.67499 15.6875 9.46328 15.7998 9.21299C15.8142 9.18069 15.8375 9.1531 15.8669 9.13339C15.8963 9.11369 15.9307 9.10266 15.9661 9.10157H17.6126C17.7241 9.10157 17.8063 9.20614 17.7729 9.31242C17.5288 10.1173 17.0369 10.8247 16.3672 11.3336C15.6623 11.7925 14.8336 12.0243 13.9929 11.9979C13.3955 12.0085 12.802 11.8989 12.2478 11.6756C11.7438 11.4626 11.295 11.1375 10.9355 10.725C10.5796 10.2968 10.3106 9.80328 10.1435 9.27214C9.94325 8.67874 9.84614 8.05545 9.85632 7.42927C9.85071 6.81191 9.95103 6.19815 10.1529 5.6147C10.3375 5.08105 10.6279 4.59013 11.0066 4.17126C11.3781 3.76766 11.8282 3.44419 12.3292 3.22069C12.8677 2.98531 13.4497 2.86558 14.0375 2.86926C14.6635 2.86058 15.2818 3.00786 15.8366 3.29783C16.3441 3.57861 16.7809 3.97143 17.1138 4.44641C17.4489 4.94184 17.6932 5.49898 17.8329 6.08956C17.9767 6.71208 18.0281 7.35236 17.9855 7.98985H12.0326C12.004 8.5969 12.2026 9.19283 12.5898 9.66128C12.7972 9.85328 13.0406 9.99814 13.3038 10.0864C13.5669 10.1747 13.8446 10.2047 14.1189 10.1747ZM12.0858 6.34241C12.0856 6.35381 12.0878 6.36512 12.0921 6.37568C12.0964 6.38623 12.1028 6.39582 12.1109 6.40388C12.1189 6.41195 12.1285 6.41832 12.1391 6.42263C12.1496 6.42694 12.1609 6.4291 12.1723 6.42899H15.642C15.6534 6.4291 15.6648 6.42694 15.6753 6.42263C15.6859 6.41832 15.6955 6.41195 15.7035 6.40388C15.7116 6.39582 15.718 6.38623 15.7223 6.37568C15.7266 6.36512 15.7287 6.35381 15.7286 6.34241C15.7286 5.8823 15.5458 5.44103 15.2205 5.11568C14.8951 4.79033 14.4539 4.60755 13.9938 4.60755H13.8206C13.3605 4.60755 12.9192 4.79033 12.5939 5.11568C12.2685 5.44103 12.0858 5.8823 12.0858 6.34241Z" fill="#005BFB"/>
</svg>
