<svg width="47" height="47" viewBox="0 0 47 47" fill="none" xmlns="http://www.w3.org/2000/svg">
<g clip-path="url(#clip0_106_153)">
<path d="M35.9844 0H11.0156C4.93186 0 0 4.93186 0 11.0156V35.9844C0 42.0681 4.93186 47 11.0156 47H35.9844C42.0681 47 47 42.0681 47 35.9844V11.0156C47 4.93186 42.0681 0 35.9844 0Z" fill="white"/>
<path d="M35.9844 0H11.0156C4.93186 0 0 4.93186 0 11.0156V35.9844C0 42.0681 4.93186 47 11.0156 47H35.9844C42.0681 47 47 42.0681 47 35.9844V11.0156C47 4.93186 42.0681 0 35.9844 0Z" fill="#0A66C2"/>
<path d="M33.9125 39.9656H39.2863C39.481 39.9656 39.6678 39.8883 39.8055 39.7506C39.9432 39.6129 40.0206 39.4262 40.0207 39.2314L40.0234 27.8776C40.0234 21.9433 38.7447 17.3819 31.8098 17.3819C29.1736 17.2839 26.6876 18.6428 25.346 20.9121C25.3395 20.9231 25.3295 20.9317 25.3176 20.9365C25.3057 20.9413 25.2926 20.9421 25.2802 20.9387C25.2678 20.9354 25.2569 20.9281 25.249 20.9179C25.2412 20.9078 25.2369 20.8953 25.2368 20.8825V18.6641C25.2368 18.4694 25.1594 18.2826 25.0217 18.1449C24.884 18.0071 24.6972 17.9298 24.5024 17.9298H19.4027C19.208 17.9298 19.0212 18.0071 18.8835 18.1449C18.7457 18.2826 18.6684 18.4694 18.6684 18.6641V39.2303C18.6684 39.4251 18.7457 39.6119 18.8835 39.7496C19.0212 39.8873 19.208 39.9647 19.4027 39.9647H24.7762C24.9709 39.9647 25.1577 39.8873 25.2954 39.7496C25.4332 39.6119 25.5105 39.4251 25.5105 39.2303V29.0642C25.5105 26.1897 26.0558 23.4058 29.6195 23.4058C33.1326 23.4058 33.1781 26.6951 33.1781 29.2503V39.2312C33.1781 39.426 33.2555 39.6128 33.3932 39.7505C33.531 39.8882 33.7178 39.9656 33.9125 39.9656ZM6.97656 10.9473C6.97656 13.1255 8.76972 14.9177 10.9481 14.9177C13.1259 14.9175 14.9179 13.1242 14.9179 10.9464C14.9175 8.76862 13.1253 6.97656 10.9473 6.97656C8.7688 6.97656 6.97656 8.76917 6.97656 10.9473ZM8.25419 39.9656H13.6348C13.8295 39.9656 14.0163 39.8882 14.1541 39.7505C14.2918 39.6128 14.3691 39.426 14.3691 39.2312V18.6641C14.3691 18.4694 14.2918 18.2826 14.1541 18.1449C14.0163 18.0071 13.8295 17.9298 13.6348 17.9298H8.25419C8.05942 17.9298 7.87263 18.0071 7.73491 18.1449C7.59719 18.2826 7.51982 18.4694 7.51982 18.6641V39.2312C7.51982 39.426 7.59719 39.6128 7.73491 39.7505C7.87263 39.8882 8.05942 39.9656 8.25419 39.9656Z" fill="white"/>
</g>
<defs>
<clipPath id="clip0_106_153">
<rect width="47" height="47" fill="white"/>
</clipPath>
</defs>
</svg>
