<svg width="16" height="12" viewBox="0 0 16 12" fill="none" xmlns="http://www.w3.org/2000/svg">
<path d="M3.63637 12.0031V5.82124L1.71919 4.06731L0 3.09399V10.9122C0 11.5158 0.489062 12.0031 1.09094 12.0031H3.63637Z" fill="#4285F4"/>
<path d="M12.3636 12.003H14.9091C15.5128 12.003 16 11.5139 16 10.9121V3.09399L14.0528 4.20881L12.3636 5.82118V12.003Z" fill="#34A853"/>
<path d="M3.63636 5.82124L3.37549 3.4058L3.63636 1.09399L7.99998 4.36674L12.3636 1.09399L12.6554 3.28099L12.3636 5.82124L7.99998 9.09399L3.63636 5.82124Z" fill="#EA4335"/>
<path d="M12.3636 1.09398V5.82123L16 3.09398V1.63942C16 0.290356 14.46 -0.478706 13.3819 0.330355L12.3636 1.09398Z" fill="#FBBC04"/>
<path d="M0 3.09401L1.67244 4.34838L3.63637 5.82125V1.09401L2.61812 0.330384C1.53812 -0.47874 0 0.290384 0 1.63938V3.09401Z" fill="#C5221F"/>
</svg>
