<svg width="601" height="38" viewBox="0 0 601 38" fill="none" xmlns="http://www.w3.org/2000/svg">
<path d="M1 31.5769C1.48873 31.5769 1.97745 31.5769 10.0488 28.726C18.1201 25.8751 33.7592 20.1734 42.223 17.1546C50.6868 14.1359 51.5013 13.973 51.9209 14.7851C54.6395 20.0463 51.8468 25.6332 52.3331 28.5261C52.7649 31.095 58.7383 26.9809 65.0399 22.9724C76.258 15.8364 85.3909 9.53996 89.3377 8.29841C94.3272 6.72884 92.3269 17.7347 93.1439 20.5436C94.8088 26.2678 109.407 22.5331 113.87 21.3779C115.313 21.0044 117.326 22.8391 122.823 25.3173C131.615 29.2813 135.596 24.172 137.075 24.4978C140.032 25.1495 152.267 27.6276 159.706 30.4933C161.333 31.1201 160.284 34.0353 161.429 35.5977C164.827 40.2329 175.064 31.7645 180.756 27.1488C182.376 25.8354 188.699 24.0239 197.254 22.0443C200.212 21.3598 200.596 22.6713 200.601 23.6635C200.606 24.6558 200.28 25.6332 200.52 26.1368C201.021 27.1916 208.44 23.2192 216.351 20.5609C218.277 19.9137 215.791 26.3737 215.265 28.7309C214.81 30.7726 223.092 26.1861 233.355 19.1219C242.478 13.6867 248.145 11.174 253.297 10.9271C257.145 10.8432 263.498 10.8432 270.044 10.8432" stroke="#DC4444" stroke-width="2" stroke-linecap="round"/>
<path d="M270.761 13.6584C271.183 17.4765 274.567 25.0999 278.516 28.2348C285.274 33.6005 299.269 25.151 300.865 25.5724C301.53 25.7478 301.408 26.8366 302.145 27.4814C302.883 28.1263 304.358 28.5477 305.75 28.554C313.238 28.5884 323.499 21.9714 330.012 19.625C334.796 17.9013 352.333 14.9737 367.883 11.2131C370.961 10.4685 371.002 16.8317 371.529 19.8101C373.063 28.4884 393.553 13.8755 395.146 14.7119C399.067 16.7707 397.39 23.0121 398.236 24.7136C400.428 29.1235 418.351 19.0344 426.326 15.5739C430.221 13.8837 437.365 19.4047 446.517 17.8181C452.034 16.8618 455.906 14.7247 458.032 15.3536C460.93 16.2108 458.907 24.0464 458.157 30.3226C457.887 32.5814 459.303 33.017 460.478 33.0234C467.294 33.0604 475.89 28.3434 480.803 26.3322C483.258 25.3274 485.697 23.0312 487.83 22.4917C489.596 22.0449 484.669 28.5285 482.534 32.4679C479.187 38.6415 503.307 17.9618 511.233 13.9841C512.419 13.3889 513.573 13.6584 514.643 15.1333C515.712 16.6082 516.766 19.5579 518.046 21.2882C519.326 23.0185 520.801 23.4399 523.246 23.3409C525.691 23.2419 529.063 22.6099 536.804 19.0184C544.546 15.427 556.555 8.89541 563.48 5.31995C570.404 1.74449 571.879 1.32311 573.271 1.10603C574.663 0.888949 575.927 0.888949 576.999 2.25848C579.795 5.82728 580.626 10.0319 582.43 11.4142C583.391 11.9537 584.444 12.1644 587.304 12.2729C590.165 12.3815 594.8 12.3815 599.576 12.3815" stroke="#DC4444" stroke-width="2" stroke-linecap="round"/>
</svg>
