<svg width="16" height="16" viewBox="0 0 16 16" fill="none" xmlns="http://www.w3.org/2000/svg">
<path d="M14.7385 7.74425C14.7385 3.88132 11.6072 0.75 7.74425 0.75C3.88132 0.75 0.75 3.88132 0.75 7.74425C0.75 11.6072 3.88132 14.7385 7.74425 14.7385" stroke="#97CEFF" stroke-width="1.5" stroke-linecap="round" stroke-linejoin="round"/>
<path d="M8.44371 0.784912C8.44371 0.784912 10.542 3.54764 10.542 7.74419M7.04486 14.7035C7.04486 14.7035 4.94658 11.9407 4.94658 7.74419C4.94658 3.54764 7.04486 0.784912 7.04486 0.784912M1.19067 10.1922H7.74428M1.19067 5.2962H14.2979" stroke="#97CEFF" stroke-width="1.5" stroke-linecap="round" stroke-linejoin="round"/>
<path d="M14.6539 11.8828C14.9994 12.0954 14.9777 12.6123 14.6224 12.6529L12.827 12.8564L12.022 14.4735C11.8625 14.7945 11.3694 14.6371 11.2876 14.2398L10.4098 9.96217C10.3406 9.62644 10.6427 9.41522 10.9344 9.59497L14.6539 11.8828Z" stroke="#97CEFF" stroke-width="1.5"/>
</svg>
