<svg width="45" height="72" viewBox="0 0 45 72" fill="none" xmlns="http://www.w3.org/2000/svg">
<path d="M31.7178 40.7728C31.7178 38.8751 33.1918 37.375 35.0565 37.375L36.7258 37.375C40.3984 37.375 43.4033 34.3171 43.4033 30.5796C43.4033 26.8421 40.3984 23.7841 36.7258 23.7841L34.7961 23.7841C34.9691 22.9461 35.0564 22.0921 35.0565 21.2358L35.0565 7.29699e-07L31.7178 1.02158e-06L31.7178 21.2358C31.7178 26.3851 27.5961 30.5796 22.5363 30.5796C21.0306 30.5796 19.6149 30.2279 18.3629 29.5705L18.3629 33.2332C19.7024 33.7207 21.1138 33.9724 22.5363 33.9773C27.3224 33.9773 31.4891 31.2099 33.5958 27.1818L36.7258 27.1818C38.5905 27.1818 40.0646 28.6819 40.0646 30.5796C40.0646 32.4772 38.5905 33.9773 36.7258 33.9773L35.0565 33.9773C31.3839 33.9773 28.3791 37.0353 28.3791 40.7728L31.7178 40.7728ZM16.6936 37.2154L16.6936 26.3324C16.6936 22.0003 12.8273 18.6875 8.34679 18.6875C3.86624 18.6875 9.80295e-06 22.0003 1.01817e-05 26.3324L1.11331e-05 37.2154L2.60921 35.3585L5.37367 33.3929C6.3252 33.7378 7.26505 34.137 8.34679 34.137C9.42853 34.137 10.3667 33.7378 11.3199 33.3929L14.086 35.3568L16.6936 37.2154ZM8.34679 30.7393C7.3819 30.7393 6.49381 30.5014 5.73759 30.1022L4.85283 29.6248L4.01815 30.2075L3.33872 30.6849L3.33872 26.3324C3.33872 24.0967 5.45213 22.0853 8.34679 22.0853C11.2415 22.0853 13.3549 24.0967 13.3549 26.3324L13.3549 30.6866L12.6771 30.2075L11.8424 29.6231L10.9543 30.1022C10.1476 30.5235 9.2535 30.7419 8.34679 30.7393ZM20.0323 22.0853C24.6364 22.0853 28.3791 18.2764 28.3791 13.5909L28.3791 1.31346e-06L25.0404 1.60534e-06L25.0404 13.5909C25.0404 16.3975 22.7901 18.6875 20.0323 18.6875C17.2745 18.6875 15.0242 16.3975 15.0242 13.5909L15.0242 2.48098e-06L11.6855 2.77286e-06L11.6855 13.5909C11.6855 15.2303 12.1412 16.7508 12.9375 18.0504C14.5146 18.8103 15.8649 19.9829 16.8505 21.4482C17.86 21.8702 18.941 22.0866 20.0323 22.0853ZM5.00808 17.5187C6.08695 17.1657 7.21352 16.9868 8.34679 16.9887L8.34679 3.06473e-06L5.00808 3.35661e-06L5.00808 17.5187Z" fill="#4F4F4F"/>
<path d="M30.8852 39.2042C33.2891 47.4084 9.20687 67.7353 9.20687 67.7353C9.20687 67.7353 3.28825 52.61 9.20687 46.6913C15.1255 40.7727 42.0881 41.4303 42.0881 41.4303" stroke="#4F4F4F" stroke-width="4.60338" stroke-linecap="round"/>
</svg>
