<svg width="95" height="92" viewBox="0 0 95 92" fill="none" xmlns="http://www.w3.org/2000/svg">
<g filter="url(#filter0_d_106_68)">
<path d="M75.851 0H18.3029C10.4036 0 4 6.40362 4 14.3029V69.6971C4 77.5964 10.4036 84 18.3029 84H75.851C83.7502 84 90.1538 77.5964 90.1538 69.6971V14.3029C90.1538 6.40362 83.7502 0 75.851 0Z" fill="#00005B"/>
<path d="M38.6106 50.2564H25.2597L22.5432 58.7106C22.5084 58.8555 22.4269 58.9849 22.3113 59.079C22.1957 59.1731 22.0524 59.2265 21.9035 59.2312L15.0879 59.2309C14.702 59.2309 14.5671 59.0188 14.6834 58.5948L26.2424 25.4427L26.3579 25.0944L26.3962 24.9753L26.4736 24.7262C26.512 24.5977 26.5504 24.4614 26.5891 24.3136C26.7405 23.5426 26.8179 22.7588 26.8203 21.973C26.8125 21.9181 26.8175 21.8621 26.8351 21.8094C26.8527 21.7568 26.8823 21.709 26.9215 21.6697C26.9607 21.6305 27.0086 21.6009 27.0612 21.5833C27.1138 21.5658 27.1699 21.5607 27.2248 21.5685H36.4143C36.6835 21.5685 36.8377 21.6649 36.8767 21.8576L49.996 58.653C50.1115 59.0385 49.996 59.2311 49.6494 59.2309H42.1358C42.0068 59.2449 41.8771 59.2117 41.7708 59.1373C41.6645 59.0629 41.5889 58.9524 41.558 58.8263L38.6106 50.2564ZM27.3406 43.1282H36.4722L36.342 42.6984L36.133 42.0179L35.8271 41.0433L35.2398 39.2035L34.6805 37.4353L33.6399 34.1409C33.3524 33.2315 33.0764 32.3185 32.812 31.4022L32.5165 30.3602L32.1975 29.2184L31.906 28.1593H31.8482C31.5589 29.5465 31.2067 30.9199 30.7928 32.2751L30.4024 33.5281L29.4635 36.5569L28.9876 38.0999C28.9017 38.3786 28.8158 38.6541 28.7301 38.9265L28.4744 39.7335L28.2199 40.5217L27.9669 41.2903L27.7151 42.0398C27.5897 42.41 27.4649 42.7728 27.3406 43.1282ZM71.2649 46.966H59.8795C60.0187 48.0925 60.3928 49.1772 60.9776 50.15C61.6239 51.1135 62.5379 51.8669 63.607 52.3173C65.0559 52.9447 66.6232 53.2519 68.2017 53.2179C69.4541 53.1937 70.7017 53.0567 71.9296 52.8087C73.0276 52.6606 74.1037 52.3801 75.1344 51.9734C75.3271 51.8197 75.4236 51.916 75.4238 52.2622V57.7528C75.4333 57.9025 75.4033 58.052 75.3367 58.1862C75.2707 58.2912 75.1819 58.3801 75.0769 58.4464C73.9335 58.9528 72.7302 59.3113 71.4961 59.5132C69.8196 59.8279 68.1156 59.9731 66.41 59.9463C63.7594 59.9463 61.5251 59.5487 59.7072 58.7533L59.5322 58.6749C57.7844 57.9052 56.2408 56.7375 55.0246 55.2651C53.8884 53.8777 53.0432 52.2758 52.5392 50.5549C52.0405 48.8562 51.7877 47.0948 51.7884 45.3244C51.7829 43.3913 52.0853 41.4696 52.6843 39.6315C53.261 37.8387 54.1729 36.1717 55.3715 34.7191C56.5542 33.2837 58.0327 32.1205 59.7061 31.3089C61.4013 30.481 63.405 30.1839 65.7167 30.1839C67.634 30.1359 69.5382 30.5108 71.2942 31.282C72.7705 31.9116 74.0702 32.8931 75.0796 34.1409C76.0267 35.3625 76.7506 36.7419 77.2179 38.2154C77.673 39.6353 77.9069 41.1168 77.9115 42.6079C77.9115 43.456 77.8827 44.2266 77.825 44.9199L77.7735 45.5135L77.7197 46.0769L77.6877 46.3623L77.6803 46.4225C77.6653 46.5499 77.6041 46.6674 77.5083 46.7526C77.4124 46.8378 77.2886 46.8849 77.1604 46.8849L77.0019 46.8883L76.8043 46.8984L76.6505 46.9095L76.2911 46.9401L75.9754 46.9714C75.8895 46.9804 75.8003 46.9888 75.7079 46.9967L75.4215 47.0192L75.1156 47.0394L74.7908 47.0562L74.4469 47.0707L74.2675 47.0768L73.8949 47.0869C73.5264 47.0959 73.1488 47.0731 72.7615 47.0448L72.1739 47.0017C71.8715 46.9796 71.5681 46.9677 71.2649 46.966ZM59.8798 41.7009H67.7501L68.4205 41.6965L68.8761 41.6901L69.1713 41.6834L69.5024 41.672C69.7988 41.6424 70.085 41.5475 70.3404 41.3943V41.0477C70.3291 40.5956 70.2513 40.1477 70.1096 39.7184C69.7978 38.7323 69.1709 37.8759 68.3252 37.2807C67.4795 36.6855 66.4617 36.3844 65.4283 36.4236C64.4556 36.3649 63.4868 36.5905 62.6401 37.0728C61.7934 37.5552 61.1054 38.2735 60.6599 39.1402C60.2637 39.9463 60.0003 40.8108 59.8798 41.7009Z" fill="#9999FF"/>
</g>
<defs>
<filter id="filter0_d_106_68" x="0" y="0" width="94.1539" height="92" filterUnits="userSpaceOnUse" color-interpolation-filters="sRGB">
<feFlood flood-opacity="0" result="BackgroundImageFix"/>
<feColorMatrix in="SourceAlpha" type="matrix" values="0 0 0 0 0 0 0 0 0 0 0 0 0 0 0 0 0 0 127 0" result="hardAlpha"/>
<feOffset dy="4"/>
<feGaussianBlur stdDeviation="2"/>
<feComposite in2="hardAlpha" operator="out"/>
<feColorMatrix type="matrix" values="0 0 0 0 0 0 0 0 0 0 0 0 0 0 0 0 0 0 0.25 0"/>
<feBlend mode="normal" in2="BackgroundImageFix" result="effect1_dropShadow_106_68"/>
<feBlend mode="normal" in="SourceGraphic" in2="effect1_dropShadow_106_68" result="shape"/>
</filter>
</defs>
</svg>
