<svg width="67" height="67" viewBox="0 0 67 67" fill="none" xmlns="http://www.w3.org/2000/svg">
<g filter="url(#filter0_d_106_80)">
<path d="M49.1719 0H17.8281C10.1911 0 4 6.19106 4 13.8281V45.1719C4 52.8089 10.1911 59 17.8281 59H49.1719C56.8089 59 63 52.8089 63 45.1719V13.8281C63 6.19106 56.8089 0 49.1719 0Z" fill="#0277BD"/>
<path d="M16.3884 23.6578L17.048 31.0195H33.5221V23.6578H16.3884ZM33.5219 8.75781H15.0625L15.7318 16.1194H33.5219V8.75781ZM33.5219 50.436V42.7768L33.4896 42.7854L25.2909 40.5717L24.7668 34.7003H17.3769L18.4082 46.2592L33.488 50.4455L33.5219 50.436Z" fill="#EBEBEB"/>
<path d="M42.5616 31.0195L41.707 40.5669L33.4966 42.7831V50.4418L48.5884 46.2592L48.699 45.0154L50.4289 25.6348L50.6084 23.6578L51.9375 8.75781H33.4966V16.1194H43.8698L43.2 23.6578H33.4966V31.0195H42.5616Z" fill="white"/>
</g>
<defs>
<filter id="filter0_d_106_80" x="0" y="0" width="67" height="67" filterUnits="userSpaceOnUse" color-interpolation-filters="sRGB">
<feFlood flood-opacity="0" result="BackgroundImageFix"/>
<feColorMatrix in="SourceAlpha" type="matrix" values="0 0 0 0 0 0 0 0 0 0 0 0 0 0 0 0 0 0 127 0" result="hardAlpha"/>
<feOffset dy="4"/>
<feGaussianBlur stdDeviation="2"/>
<feComposite in2="hardAlpha" operator="out"/>
<feColorMatrix type="matrix" values="0 0 0 0 0 0 0 0 0 0 0 0 0 0 0 0 0 0 0.25 0"/>
<feBlend mode="normal" in2="BackgroundImageFix" result="effect1_dropShadow_106_80"/>
<feBlend mode="normal" in="SourceGraphic" in2="effect1_dropShadow_106_80" result="shape"/>
</filter>
</defs>
</svg>
