<svg width="41" height="57" viewBox="0 0 41 57" fill="none" xmlns="http://www.w3.org/2000/svg">
<g filter="url(#filter0_d_106_85)">
<path d="M12.1667 49.0001C16.6868 49.0001 20.3333 45.3536 20.3333 40.8334V32.6667H12.1667C7.64652 32.6667 4 36.3133 4 40.8334C4 45.3536 7.64652 49.0001 12.1667 49.0001Z" fill="#0ACF83"/>
<path d="M4 24.5002C4 19.98 7.64652 16.3335 12.1667 16.3335H20.3333V32.6668H12.1667C7.64652 32.6668 4 29.0203 4 24.5002Z" fill="#A259FF"/>
<path d="M4 8.16667C4 3.64652 7.64652 0 12.1667 0H20.3333V16.3333H12.1667C7.64652 16.3333 4 12.6868 4 8.16667Z" fill="#F24E1E"/>
<path d="M20.3333 0H28.5C33.0201 0 36.6667 3.64652 36.6667 8.16667C36.6667 12.6868 33.0201 16.3333 28.5 16.3333H20.3333V0Z" fill="#FF7262"/>
<path d="M36.6667 24.5002C36.6667 29.0203 33.0201 32.6668 28.5 32.6668C23.9798 32.6668 20.3333 29.0203 20.3333 24.5002C20.3333 19.98 23.9798 16.3335 28.5 16.3335C33.0201 16.3335 36.6667 19.98 36.6667 24.5002Z" fill="#1ABCFE"/>
</g>
<defs>
<filter id="filter0_d_106_85" x="0" y="0" width="40.6667" height="57" filterUnits="userSpaceOnUse" color-interpolation-filters="sRGB">
<feFlood flood-opacity="0" result="BackgroundImageFix"/>
<feColorMatrix in="SourceAlpha" type="matrix" values="0 0 0 0 0 0 0 0 0 0 0 0 0 0 0 0 0 0 127 0" result="hardAlpha"/>
<feOffset dy="4"/>
<feGaussianBlur stdDeviation="2"/>
<feComposite in2="hardAlpha" operator="out"/>
<feColorMatrix type="matrix" values="0 0 0 0 0 0 0 0 0 0 0 0 0 0 0 0 0 0 0.25 0"/>
<feBlend mode="normal" in2="BackgroundImageFix" result="effect1_dropShadow_106_85"/>
<feBlend mode="normal" in="SourceGraphic" in2="effect1_dropShadow_106_85" result="shape"/>
</filter>
</defs>
</svg>
