<svg width="16" height="16" viewBox="0 0 16 16" fill="none" xmlns="http://www.w3.org/2000/svg">
<path d="M12.25 0H3.75C1.67893 0 0 1.67893 0 3.75V12.25C0 14.3211 1.67893 16 3.75 16H12.25C14.3211 16 16 14.3211 16 12.25V3.75C16 1.67893 14.3211 0 12.25 0Z" fill="#F0DB4F"/>
<path d="M4.20697 13.371L5.43135 12.63C5.6676 13.0488 5.88247 13.4031 6.39791 13.4031C6.89197 13.4031 7.20347 13.2099 7.20347 12.4581V7.34577H8.7071V12.4794C8.7071 14.0367 7.79422 14.7456 6.46235 14.7456C5.25953 14.7456 4.56135 14.1226 4.20691 13.3708M9.52378 13.2098L10.748 12.501C11.0703 13.0273 11.4892 13.414 12.2302 13.414C12.8533 13.414 13.2505 13.1025 13.2505 12.6728C13.2505 12.1573 12.8424 11.9747 12.155 11.6741L11.7792 11.5129C10.6944 11.0511 9.97478 10.4711 9.97478 9.24677C9.97478 8.11902 10.834 7.25977 12.1766 7.25977C13.1325 7.25977 13.8198 7.59277 14.3138 8.4627L13.1432 9.21452C12.8853 8.7527 12.6062 8.57014 12.1766 8.57014C11.7362 8.57014 11.457 8.84939 11.457 9.21452C11.457 9.66558 11.7362 9.8482 12.3806 10.1275L12.7565 10.2886C14.0345 10.8364 14.7542 11.3948 14.7542 12.6513C14.7542 14.0047 13.6909 14.7457 12.2625 14.7457C10.8663 14.7457 9.9641 14.0798 9.52378 13.2098Z" fill="#323330"/>
</svg>
