<svg width="136" height="34" viewBox="0 0 136 34" fill="none" xmlns="http://www.w3.org/2000/svg">
<g filter="url(#filter0_d_106_72)">
<path d="M111.386 0.01075V4.12575H102.541V25.775H98.119V4.126H89.0905V0.01075H111.386ZM112.38 23.3207C112.691 23.3207 112.964 23.4327 113.195 23.6572C113.429 23.8815 113.545 24.1502 113.549 24.4632C113.548 24.6686 113.491 24.8698 113.383 25.045C113.278 25.2177 113.131 25.3608 112.955 25.4613C112.781 25.5653 112.582 25.6195 112.38 25.6178C112.056 25.6178 111.781 25.5055 111.55 25.2812C111.319 25.0567 111.205 24.785 111.208 24.4632C111.205 24.1502 111.319 23.8816 111.55 23.6572C111.781 23.4327 112.056 23.3207 112.38 23.3207ZM24.729 25.775L8.4225 5.507V25.7645H4V0H9.52775L30.1292 25.5823L30.1295 4.126L30.1278 0.01075H52.4227V4.12575H34.5518V10.7458H48.9238V14.861H34.5518V21.66H52.423V25.775H24.729ZM66.5962 14.8217L69.4945 18.425L63.5558 25.8055H57.752L66.5962 14.8217ZM63.5558 0.0215L71.0383 9.314L78.4973 0.05L84.2848 0.04125L73.9358 12.9125L84.3015 25.7857H78.4973L57.7685 0.0215H63.5558ZM119.928 14.764H121.887V22.314C121.885 23.0077 121.734 23.601 121.441 24.1003C121.144 24.599 120.733 24.98 120.206 25.2488C119.682 25.5142 119.068 25.6502 118.369 25.6502C117.731 25.6502 117.159 25.5352 116.65 25.3107C116.14 25.0862 115.736 24.7498 115.439 24.3067C115.139 23.864 114.993 23.3117 114.993 22.6505H116.955C116.958 22.9397 117.024 23.1905 117.15 23.4005C117.274 23.6078 117.455 23.7749 117.672 23.8815C117.896 23.994 118.154 24.0502 118.444 24.05C118.759 24.05 119.029 23.985 119.247 23.852C119.466 23.722 119.634 23.5272 119.751 23.2675C119.865 23.0105 119.925 22.6917 119.928 22.3137V14.764ZM129.95 17.7165C129.903 17.259 129.693 16.9015 129.327 16.6478C128.958 16.3908 128.482 16.264 127.898 16.264C127.488 16.264 127.134 16.326 126.84 16.447C126.547 16.571 126.319 16.7362 126.163 16.946C126.007 17.1555 125.929 17.3948 125.923 17.6635C125.923 17.8878 125.977 18.0828 126.082 18.245C126.191 18.4152 126.337 18.5578 126.51 18.6615C126.699 18.7798 126.9 18.8758 127.11 18.9478C127.332 19.0244 127.553 19.0894 127.775 19.1427L128.797 19.3937C129.208 19.4882 129.606 19.615 129.987 19.7775C130.367 19.937 130.712 20.1407 131.014 20.3857C131.317 20.6308 131.557 20.926 131.733 21.2715C131.91 21.617 132 22.0215 132 22.488C132 23.1168 131.838 23.669 131.511 24.1472C131.185 24.6227 130.715 24.9948 130.097 25.2635C129.483 25.5293 128.74 25.665 127.865 25.665C127.02 25.665 126.283 25.535 125.662 25.2752C125.039 25.0185 124.554 24.6403 124.203 24.1443C123.852 23.6483 123.664 23.043 123.637 22.3315H125.579C125.606 22.7035 125.726 23.0135 125.929 23.2645C126.136 23.5125 126.406 23.6955 126.735 23.8195C127.068 23.9408 127.439 24.0028 127.85 24.0028C128.278 24.0028 128.656 23.9377 128.982 23.8107C129.306 23.6837 129.561 23.5068 129.744 23.2763C129.93 23.0487 130.022 22.7802 130.025 22.4732C130.022 22.1927 129.938 21.9595 129.776 21.7763C129.612 21.5933 129.384 21.4398 129.093 21.3158C128.8 21.1917 128.458 21.0795 128.069 20.9823L126.828 20.6693C125.932 20.4417 125.222 20.0965 124.704 19.6327C124.183 19.1693 123.925 18.5553 123.925 17.7845C123.925 17.1528 124.098 16.5975 124.449 16.122C124.797 15.647 125.273 15.2778 125.876 15.015C126.481 14.7493 127.164 14.6193 127.925 14.6193C128.698 14.6193 129.375 14.7493 129.96 15.015C130.544 15.2778 131.002 15.6438 131.335 16.1103C131.667 16.577 131.841 17.1112 131.85 17.7165H129.95Z" fill="black"/>
</g>
<defs>
<filter id="filter0_d_106_72" x="0" y="0" width="136" height="33.8055" filterUnits="userSpaceOnUse" color-interpolation-filters="sRGB">
<feFlood flood-opacity="0" result="BackgroundImageFix"/>
<feColorMatrix in="SourceAlpha" type="matrix" values="0 0 0 0 0 0 0 0 0 0 0 0 0 0 0 0 0 0 127 0" result="hardAlpha"/>
<feOffset dy="4"/>
<feGaussianBlur stdDeviation="2"/>
<feComposite in2="hardAlpha" operator="out"/>
<feColorMatrix type="matrix" values="0 0 0 0 0 0 0 0 0 0 0 0 0 0 0 0 0 0 0.25 0"/>
<feBlend mode="normal" in2="BackgroundImageFix" result="effect1_dropShadow_106_72"/>
<feBlend mode="normal" in="SourceGraphic" in2="effect1_dropShadow_106_72" result="shape"/>
</filter>
</defs>
</svg>
