<svg width="58" height="58" viewBox="0 0 58 58" fill="none" xmlns="http://www.w3.org/2000/svg">
<g filter="url(#filter0_d_106_91)">
<path d="M23.65 0C21.7537 0 19.9351 0.753301 18.5942 2.09419C17.2533 3.43507 16.5 5.2537 16.5 7.15V11.35H27.225C28.2 11.35 29 12.775 29 13.75H11.15C9.2537 13.75 7.43507 14.5033 6.09419 15.8442C4.7533 17.1851 4 19.0037 4 20.9V30.3525C4 32.2488 4.7533 34.0674 6.09419 35.4083C7.43507 36.7492 9.2537 37.5025 11.15 37.5025H14.1V30.8025C14.0967 29.8647 14.2786 28.9355 14.6352 28.0682C14.9918 27.2009 15.5161 26.4125 16.178 25.7482C16.84 25.0839 17.6265 24.5569 18.4926 24.1972C19.3587 23.8376 20.2872 23.6525 21.225 23.6525H34.35C38.3 23.6525 41.5 20.475 41.5 16.525V7.15C41.5 5.2537 40.7467 3.43507 39.4058 2.09419C38.0649 0.753301 36.2463 0 34.35 0H23.65ZM21.85 4.025C22.85 4.025 23.65 4.325 23.65 5.8C23.65 7.275 22.85 8.0275 21.85 8.0275C20.875 8.0275 20.075 7.2775 20.075 5.8025C20.075 4.3275 20.875 4.025 21.85 4.025Z" fill="#0288D1"/>
<path d="M43.8975 12.5V19.2C43.9005 20.1376 43.7184 21.0665 43.3616 21.9335C43.0049 22.8006 42.4805 23.5887 41.8186 24.2527C41.1567 24.9167 40.3702 25.4435 39.5043 25.803C38.6384 26.1625 37.7101 26.3475 36.7725 26.3475H23.65C22.7122 26.3442 21.783 26.5261 20.9157 26.8827C20.0484 27.2393 19.26 27.7636 18.5957 28.4255C17.9314 29.0875 17.4044 29.874 17.0447 30.7401C16.6851 31.6062 16.5 32.5347 16.5 33.4725V42.8475C16.5 44.7438 17.2533 46.5624 18.5942 47.9033C19.9351 49.2442 21.7537 49.9975 23.65 49.9975H34.35C36.2459 49.9975 38.0641 49.2445 39.4049 47.9042C40.7457 46.5639 41.4993 44.7459 41.5 42.85V38.65H30.7725C29.7975 38.65 29 37.225 29 36.25H46.85C48.7463 36.25 50.5649 35.4967 51.9058 34.1558C53.2467 32.8149 54 30.9963 54 29.1V19.65C54 17.7537 53.2467 15.9351 51.9058 14.5942C50.5649 13.2533 48.7463 12.5 46.85 12.5H43.8975ZM19.8 23.7825L19.79 23.7925L19.885 23.7825H19.8ZM36.15 41.9725C37.125 41.9725 37.925 42.7225 37.925 44.1975C37.925 44.4306 37.8791 44.6614 37.7899 44.8768C37.7007 45.0921 37.5699 45.2878 37.4051 45.4526C37.2403 45.6174 37.0446 45.7482 36.8293 45.8374C36.6139 45.9266 36.3831 45.9725 36.15 45.9725C35.15 45.9725 34.35 45.6725 34.35 44.1975C34.35 42.7225 35.15 41.9725 36.15 41.9725Z" fill="#FDD835"/>
</g>
<defs>
<filter id="filter0_d_106_91" x="0" y="0" width="58" height="57.9976" filterUnits="userSpaceOnUse" color-interpolation-filters="sRGB">
<feFlood flood-opacity="0" result="BackgroundImageFix"/>
<feColorMatrix in="SourceAlpha" type="matrix" values="0 0 0 0 0 0 0 0 0 0 0 0 0 0 0 0 0 0 127 0" result="hardAlpha"/>
<feOffset dy="4"/>
<feGaussianBlur stdDeviation="2"/>
<feComposite in2="hardAlpha" operator="out"/>
<feColorMatrix type="matrix" values="0 0 0 0 0 0 0 0 0 0 0 0 0 0 0 0 0 0 0.25 0"/>
<feBlend mode="normal" in2="BackgroundImageFix" result="effect1_dropShadow_106_91"/>
<feBlend mode="normal" in="SourceGraphic" in2="effect1_dropShadow_106_91" result="shape"/>
</filter>
</defs>
</svg>
