<svg width="68" height="61" viewBox="0 0 68 61" fill="none" xmlns="http://www.w3.org/2000/svg">
<g filter="url(#filter0_d_106_75)">
<path d="M33.5528 31.5194C36.4674 31.5194 38.8301 29.1567 38.8301 26.2421C38.8301 23.3276 36.4674 20.9648 33.5528 20.9648C30.6383 20.9648 28.2756 23.3276 28.2756 26.2421C28.2756 29.1567 30.6383 31.5194 33.5528 31.5194Z" fill="#00D8FF"/>
<path d="M33.5528 38.3421C27.2098 38.495 20.8828 37.64 14.8079 35.809C12.0017 34.9195 9.38439 33.5181 7.08827 31.6759C6.21179 31.0468 5.48192 30.2354 4.94881 29.2975C4.41571 28.3595 4.09202 27.3173 4 26.2424C4 22.753 7.83342 19.3333 14.2548 17.0958C20.4924 15.1147 27.0089 14.1538 33.5528 14.2502C40.0094 14.161 46.4388 15.1045 52.5975 17.0451C55.2997 17.9077 57.8281 19.2412 60.0659 20.9841C60.9262 21.585 61.6442 22.3673 62.1694 23.2758C62.6946 24.1843 63.0142 25.197 63.1056 26.2424C63.1056 29.8689 58.8205 33.544 51.9178 35.828C45.9606 37.5999 39.767 38.4478 33.5528 38.3421ZM33.5528 16.7749C27.2922 16.6931 21.0584 17.6065 15.0844 19.4811C9.17385 21.5435 6.52466 24.3636 6.52466 26.236C6.52466 28.195 9.37228 31.2748 15.6248 33.4131C21.4362 35.1568 27.4873 35.9683 33.5528 35.8175C39.498 35.9238 45.4245 35.1194 51.1262 33.4321C57.6173 31.2811 60.5725 28.1971 60.5725 26.2424C60.4657 25.5717 60.2211 24.9304 59.8541 24.3589C59.4872 23.7875 59.0059 23.2982 58.4405 22.9219C56.4387 21.3751 54.18 20.1932 51.7679 19.4304C45.8761 17.5821 39.7271 16.6857 33.5528 16.7749Z" fill="#00D8FF"/>
<path d="M21.5628 52.5629C20.5781 52.5854 19.605 52.3465 18.7426 51.8705C15.7198 50.1269 14.6728 45.0987 15.9414 38.4177C17.3418 32.0244 19.7654 25.8992 23.1185 20.2786C26.2661 14.641 30.2946 9.54288 35.0515 5.17709C37.1487 3.26694 39.567 1.74262 42.1949 0.674506C43.1459 0.230246 44.1828 0 45.2325 0C46.2822 0 47.3191 0.230246 48.2701 0.674506C51.4133 2.48567 52.4539 8.03316 50.9869 15.1533C49.5451 21.2002 47.1843 26.9902 43.9871 32.3214C40.9505 37.8925 37.0489 42.9463 32.4277 47.2941C30.2551 49.28 27.7337 50.8466 24.9909 51.9149C23.8931 52.3234 22.734 52.5426 21.5628 52.5629ZM25.3054 21.5325C22.1072 26.9147 19.7844 32.7709 18.4239 38.8821C17.2565 45.0354 18.3774 48.7358 20.007 49.6773C21.6958 50.6547 25.7952 49.728 30.7727 45.3795C35.1848 41.2148 38.9089 36.377 41.8065 31.0464C44.8693 25.9496 47.1338 20.414 48.5213 14.6319C49.9018 7.92973 48.7092 3.8261 47.0162 2.85086C46.3816 2.60812 45.7036 2.49949 45.0249 2.53183C44.3463 2.56416 43.6817 2.73676 43.073 3.03873C40.7336 4.00439 38.5827 5.37495 36.7192 7.08747C32.1746 11.2696 28.3266 16.1502 25.3202 21.5451L25.3054 21.5325Z" fill="#00D8FF"/>
<path d="M45.5366 52.5902C42.6763 52.5902 39.0434 50.8593 35.2606 47.6064C30.4209 43.2003 26.3243 38.0417 23.1292 32.3297C19.8174 26.7868 17.413 20.7501 16.007 14.4481C15.3986 11.6752 15.2857 8.81662 15.6735 6.00442C15.7646 4.96155 16.0828 3.95124 16.6057 3.04434C17.1286 2.13745 17.8436 1.35592 18.7005 0.754574C21.8394 -1.06292 27.1653 0.805236 32.6009 5.63079C37.1195 9.89945 40.9567 14.8359 43.9787 20.2679C47.2888 25.6813 49.7184 31.5858 51.1769 37.761C51.8126 40.6355 51.9106 43.6028 51.4661 46.5129C51.3608 47.5862 51.0244 48.624 50.48 49.555C49.9356 50.486 49.1962 51.2881 48.3124 51.9063C47.4638 52.3755 46.506 52.6115 45.5366 52.5902ZM25.314 31.0589C28.3794 36.5176 32.2925 41.4547 36.9072 45.6854C41.6546 49.77 45.4205 50.6482 47.0396 49.6962C48.7283 48.7146 49.9737 44.7081 48.6903 38.2254C47.2846 32.3294 44.9541 26.6931 41.7855 21.526C38.9016 16.3271 35.239 11.6002 30.9248 7.50951C25.808 2.96681 21.6579 1.95146 19.9671 2.93093C19.4403 3.35945 19.0081 3.8924 18.6974 4.4962C18.3868 5.1 18.2046 5.76158 18.1622 6.43927C17.8269 8.94723 17.9362 11.4947 18.4852 13.9647C19.838 19.9913 22.144 25.7633 25.3161 31.0631L25.314 31.0589Z" fill="#00D8FF"/>
</g>
<defs>
<filter id="filter0_d_106_75" x="0" y="0" width="67.1057" height="60.5916" filterUnits="userSpaceOnUse" color-interpolation-filters="sRGB">
<feFlood flood-opacity="0" result="BackgroundImageFix"/>
<feColorMatrix in="SourceAlpha" type="matrix" values="0 0 0 0 0 0 0 0 0 0 0 0 0 0 0 0 0 0 127 0" result="hardAlpha"/>
<feOffset dy="4"/>
<feGaussianBlur stdDeviation="2"/>
<feComposite in2="hardAlpha" operator="out"/>
<feColorMatrix type="matrix" values="0 0 0 0 0 0 0 0 0 0 0 0 0 0 0 0 0 0 0.25 0"/>
<feBlend mode="normal" in2="BackgroundImageFix" result="effect1_dropShadow_106_75"/>
<feBlend mode="normal" in="SourceGraphic" in2="effect1_dropShadow_106_75" result="shape"/>
</filter>
</defs>
</svg>
