<svg width="91" height="64" viewBox="0 0 91 64" fill="none" xmlns="http://www.w3.org/2000/svg">
<g filter="url(#filter0_d_106_95)">
<path d="M60.734 5.66954C60.3363 5.66954 60.0665 5.71765 59.7864 5.78294V5.82761H59.8348C60.0215 6.18498 60.3397 6.44613 60.5749 6.7657C60.7616 7.13338 60.9207 7.50105 61.1075 7.86529L61.1559 7.81375C61.481 7.58696 61.64 7.22272 61.64 6.66949C61.5017 6.50798 61.481 6.34648 61.3634 6.18841C61.225 5.95819 60.9276 5.84479 60.7409 5.66267L60.734 5.66954ZM23.9546 51.0071H20.7487C20.6579 45.9449 20.3464 40.8889 19.815 35.8534H19.7873L14.911 51.0071H12.4729L7.63125 35.8534H7.59667C7.21818 40.8967 6.99329 45.9503 6.92229 51.0071H4C4.19136 44.2492 4.664 37.9151 5.41792 32.0048H9.395L14.0119 45.9696H14.0395L18.6979 32.0048H22.4848C23.3217 38.9322 23.8151 45.2664 23.965 51.0071H23.9546ZM37.8467 36.9873C36.5395 44.0179 34.8195 49.1264 32.6869 52.3129C31.02 54.7733 29.1951 56.0023 27.2123 56C26.6867 56 26.0342 55.8419 25.2549 55.5258V53.8283C25.6376 53.8879 26.0826 53.9176 26.5898 53.9176C27.5167 53.9176 28.2625 53.6634 28.8274 53.1548C29.5075 52.5363 29.8476 51.8433 29.8476 51.0759C29.8476 50.5421 29.5824 49.4608 29.0522 47.8321L25.5454 36.9873H28.6925L31.2067 45.0968C31.7762 46.9387 32.0125 48.2249 31.9157 48.9557C33.299 45.295 34.2616 41.3055 34.8034 36.9873H37.8467ZM80.4707 51.0071H71.3753V32.0048H74.4359V48.6705H80.4707V51.0071ZM68.989 51.471L65.4753 49.7529C65.7889 49.4941 66.0828 49.2077 66.3572 48.8939C67.8535 47.1528 68.6005 44.5722 68.5982 41.152C68.5982 34.8637 66.114 31.7185 61.1455 31.7162C58.7108 31.7162 56.8087 32.5145 55.4392 34.1112C53.9499 35.8568 53.2052 38.4283 53.2052 41.8256C53.2029 45.1679 53.8646 47.619 55.1903 49.1791C56.3984 50.5879 58.2232 51.2924 60.6648 51.2924C61.5778 51.2924 62.4136 51.1801 63.1721 50.9556L67.7544 53.6084L68.9994 51.471H68.989ZM57.6042 47.2032C56.8272 45.9639 56.4387 43.9755 56.4387 41.238C56.4387 36.4501 57.9027 34.0562 60.8308 34.0562C62.3663 34.0562 63.4926 34.6289 64.2096 35.7743C64.9842 37.0183 65.3716 38.9918 65.3716 41.695C65.3716 46.5217 63.9076 48.9363 60.9795 48.9385C59.4417 48.9385 58.3143 48.3658 57.5972 47.2204L57.6042 47.2032ZM51.8703 45.7428C51.8703 47.3602 51.2754 48.6843 50.0858 49.7151C48.9007 50.746 47.3053 51.2614 45.2994 51.2614C43.4215 51.2614 41.6198 50.6704 39.8595 49.4918L40.6791 47.8561C42.1915 48.6098 43.5633 48.9855 44.7945 48.9832C45.9427 48.9832 46.8453 48.7312 47.5024 48.2272C47.8316 47.982 48.0974 47.6625 48.2778 47.295C48.4582 46.9276 48.548 46.5227 48.5399 46.114C48.5399 44.98 47.7445 44.0179 46.2989 43.2104C44.957 42.4784 42.2768 40.9527 42.2768 40.9527C40.8174 39.8978 40.0912 38.7673 40.0912 36.9083C40.0912 35.3643 40.633 34.1215 41.7166 33.18C42.8025 32.227 44.2089 31.7517 45.9357 31.754C47.7087 31.754 49.3226 32.2236 50.7774 33.1628L50.0408 34.7985C48.881 34.2895 47.629 34.0206 46.3611 34.0081C45.3813 34.0081 44.6273 34.2441 44.0994 34.716C43.8335 34.9363 43.6191 35.2115 43.471 35.5224C43.3229 35.8334 43.2447 36.1726 43.2417 36.5166C43.2417 37.6437 44.051 38.6127 45.545 39.4374C46.9041 40.1762 49.65 41.7396 49.65 41.7396C51.1475 42.7877 51.891 43.9045 51.891 45.7532L51.8703 45.7428ZM84.3163 25.634C82.4661 25.5859 81.0309 25.7715 79.8309 26.28C79.485 26.4175 78.9317 26.4175 78.8833 26.8539C79.0735 27.036 79.1012 27.335 79.2637 27.5892C79.5404 28.0497 80.0176 28.6648 80.4603 28.9878C80.9398 29.3704 81.4321 29.7254 81.937 30.053C82.8362 30.6028 83.8564 30.9293 84.7383 31.4825C85.2397 31.8055 85.7515 32.2144 86.2599 32.558C86.5124 32.7298 86.6749 33.0391 87 33.1491V33.0803C86.8409 32.8742 86.7925 32.5752 86.6369 32.345C86.4052 32.1148 86.1735 31.9086 85.9452 31.6818C85.2671 30.7919 84.4567 30.0098 83.5417 29.3623C82.8016 28.8607 81.1831 28.1597 80.8787 27.3178L80.8338 27.2697C81.3387 27.225 81.9405 27.0429 82.4246 26.9054C83.2097 26.6993 83.929 26.7439 84.7417 26.5412C85.1106 26.445 85.4795 26.3373 85.8484 26.2182V26.012C85.4334 25.5997 85.1221 25.0396 84.6933 24.6547C83.4952 23.6165 82.2188 22.6711 80.8753 21.8267C80.149 21.3662 79.2291 21.0707 78.4648 20.679C78.1882 20.5415 77.7247 20.4728 77.5657 20.2426C77.1507 19.7409 76.9086 19.0743 76.6146 18.4764C75.9364 17.1671 75.3054 15.8341 74.7229 14.48C74.3079 13.5797 74.0555 12.6829 73.5471 11.8582C71.1608 7.9512 68.5775 5.58364 64.6038 3.26762C63.7496 2.78655 62.726 2.58037 61.6435 2.32609C61.066 2.2986 60.4884 2.25737 59.9143 2.23331C59.5339 2.07181 59.1673 1.63541 58.8422 1.4258C57.5281 0.601105 54.1251 -1.18573 53.1567 1.17839C52.5342 2.66972 54.0801 4.14042 54.6162 4.89639C55.0139 5.42214 55.5153 6.02348 55.792 6.61451C55.9545 7.01311 55.9995 7.42202 56.162 7.83781C56.5286 8.84806 56.8779 9.97514 57.3621 10.9201C57.6145 11.4012 57.8912 11.9063 58.2163 12.3393C58.403 12.5901 58.7212 12.7069 58.7938 13.1193C58.4688 13.5866 58.448 14.267 58.2612 14.8374C57.4312 17.4386 57.7563 20.6549 58.9322 22.5689C59.3022 23.1393 60.1841 24.4039 61.3634 23.9194C62.4009 23.507 62.1726 22.2012 62.47 21.0501C62.5392 20.7752 62.4942 20.5931 62.636 20.4075V20.4591C62.9611 21.1051 63.2862 21.7202 63.5836 22.3662C64.296 23.4933 65.541 24.6616 66.582 25.4416C67.1353 25.854 67.5745 26.5687 68.2662 26.823V26.7542H68.2143C68.0656 26.5549 67.8685 26.4587 67.6817 26.2972C67.2438 25.8702 66.8392 25.4107 66.4713 24.9227C65.4999 23.5979 64.6361 22.1983 63.888 20.7374C63.5075 20.0158 63.1894 19.2392 62.885 18.5279C62.7467 18.253 62.7467 17.8407 62.515 17.7032C62.1692 18.2049 61.6608 18.6413 61.4083 19.2598C60.9691 20.2495 60.9242 21.4659 60.7582 22.7304C60.6648 22.7545 60.7098 22.7304 60.6648 22.7785C59.9247 22.5998 59.6722 21.837 59.3956 21.1979C58.7039 19.5657 58.5898 16.9438 59.1881 15.0642C59.3506 14.5831 60.0423 13.0643 59.7656 12.6039C59.6204 12.1675 59.1639 11.9166 58.9114 11.5627C58.5871 11.1018 58.3091 10.6103 58.0814 10.0954C57.5281 8.81026 57.2514 7.38766 56.6497 6.10251C56.373 5.50804 55.8888 4.88608 55.4946 4.33972C55.0554 3.7212 54.5712 3.2848 54.2219 2.55288C54.1078 2.30204 53.9452 1.88626 54.1285 1.61136C54.177 1.4258 54.2738 1.35364 54.4536 1.3021C54.758 1.05469 55.6122 1.37769 55.913 1.51514C56.7672 1.85877 57.4866 2.18177 58.2025 2.66284C58.5275 2.88963 58.8768 3.32604 59.2918 3.43943H59.776C60.5161 3.60093 61.3495 3.48754 62.0412 3.69028C63.2689 4.08201 64.3756 4.65242 65.3681 5.27094C68.4268 7.21174 70.9144 9.92177 72.5788 13.1262C72.8554 13.6553 72.9765 14.1399 73.2289 14.6896C73.7131 15.8236 74.3114 16.9679 74.8025 18.064C75.2866 19.1464 75.7535 20.2495 76.4486 21.1463C76.7945 21.6274 78.1847 21.8782 78.8072 22.1291C79.2672 22.3353 79.983 22.5243 80.398 22.7751C81.1935 23.2562 81.9681 23.806 82.7151 24.3351C83.0955 24.5963 84.2472 25.1701 84.3163 25.634Z" fill="black"/>
</g>
<defs>
<filter id="filter0_d_106_95" x="0" y="0" width="91" height="64" filterUnits="userSpaceOnUse" color-interpolation-filters="sRGB">
<feFlood flood-opacity="0" result="BackgroundImageFix"/>
<feColorMatrix in="SourceAlpha" type="matrix" values="0 0 0 0 0 0 0 0 0 0 0 0 0 0 0 0 0 0 127 0" result="hardAlpha"/>
<feOffset dy="4"/>
<feGaussianBlur stdDeviation="2"/>
<feComposite in2="hardAlpha" operator="out"/>
<feColorMatrix type="matrix" values="0 0 0 0 0 0 0 0 0 0 0 0 0 0 0 0 0 0 0.25 0"/>
<feBlend mode="normal" in2="BackgroundImageFix" result="effect1_dropShadow_106_95"/>
<feBlend mode="normal" in="SourceGraphic" in2="effect1_dropShadow_106_95" result="shape"/>
</filter>
</defs>
</svg>
