<svg width="111" height="70" viewBox="0 0 111 70" fill="none" xmlns="http://www.w3.org/2000/svg">
<g filter="url(#filter0_d_106_96)">
<path d="M55.5 0C41.7667 0 33.1833 6.88889 29.75 20.6667C34.9 13.7778 40.9083 11.1944 47.775 12.9167C51.6926 13.8991 54.4929 16.7509 57.5926 19.907C62.642 25.049 68.4856 31 81.25 31C94.9833 31 103.567 24.1111 107 10.3333C101.85 17.2222 95.8417 19.8056 88.975 18.0833C85.0574 17.1009 82.2571 14.2491 79.1574 11.093C74.108 5.95095 68.2644 0 55.5 0ZM29.75 31C16.0167 31 7.43333 37.8889 4 51.6667C9.15 44.7778 15.1583 42.1944 22.025 43.9167C25.9426 44.8991 28.7429 47.7509 31.8426 50.907C36.892 56.049 42.7356 62 55.5 62C69.2333 62 77.8167 55.1111 81.25 41.3333C76.1 48.2222 70.0917 50.8056 63.225 49.0833C59.3074 48.1009 56.5071 45.2491 53.4074 42.093C48.358 36.9509 42.5144 31 29.75 31Z" fill="url(#paint0_linear_106_96)"/>
</g>
<defs>
<filter id="filter0_d_106_96" x="0" y="0" width="111" height="70" filterUnits="userSpaceOnUse" color-interpolation-filters="sRGB">
<feFlood flood-opacity="0" result="BackgroundImageFix"/>
<feColorMatrix in="SourceAlpha" type="matrix" values="0 0 0 0 0 0 0 0 0 0 0 0 0 0 0 0 0 0 127 0" result="hardAlpha"/>
<feOffset dy="4"/>
<feGaussianBlur stdDeviation="2"/>
<feComposite in2="hardAlpha" operator="out"/>
<feColorMatrix type="matrix" values="0 0 0 0 0 0 0 0 0 0 0 0 0 0 0 0 0 0 0.25 0"/>
<feBlend mode="normal" in2="BackgroundImageFix" result="effect1_dropShadow_106_96"/>
<feBlend mode="normal" in="SourceGraphic" in2="effect1_dropShadow_106_96" result="shape"/>
</filter>
<linearGradient id="paint0_linear_106_96" x1="-282.134" y1="1984" x2="8627.92" y2="7104.81" gradientUnits="userSpaceOnUse">
<stop stop-color="#2298BD"/>
<stop offset="1" stop-color="#0ED7B5"/>
</linearGradient>
</defs>
</svg>
